# xmcd
#
# Track frame offsets:
# 150
# 15390
# 33625
# 50052
# 63167
# 86787
# 104712
# 119170
# 132715
# 153012
# 154465
#
# Disc length: 2270 seconds
#
#
# Revision: 0
# Processed by: cddbd v1.5.1PL0 Copyright (c) Steve Scherf et al.
# Submitted via: FreeRIP 2.942 
#
DISCID=9e08dc0b
DTITLE=John Gracie - A Gene MacLellan Tribute
DYEAR=1900
DGENRE=Easy Listening
TTITLE0=The Call
TTITLE1=Just Bidin' My time
TTITLE2=Hard As I Try
TTITLE3=Born With A Thorn In My Shoe
TTITLE4=What Can You Do
TTITLE5=Snowbird
TTITLE6=Face In The Mirror
TTITLE7=Pages Of Time
TTITLE8=Put Your Hand In The Hand
TTITLE9=Whoops
TTITLE10=Shilo's Song
EXTD=
EXTT0=
EXTT1=
EXTT2=
EXTT3=
EXTT4=
EXTT5=
EXTT6=
EXTT7=
EXTT8=
EXTT9=
EXTT10=
PLAYORDER=
